<svg xmlns="http://www.w3.org/2000/svg" width="48" height="48" viewBox="0 0 48 48"><path fill="none" stroke="currentColor" stroke-linecap="round" stroke-linejoin="round" d="m39.648 21.47l-.967-6.575a5.25 5.25 0 0 0-5.192-4.487H12.373a5.25 5.25 0 0 0-5.192 4.487L4.527 32.958a2.54 2.54 0 0 0 2.513 2.908h.687a4.23 4.23 0 0 0 2.904-1.154l3.781-3.572a4.23 4.23 0 0 1 2.904-1.154l8.256.001m-9.778-13.951v8.207M11.69 20.14h8.208" stroke-width="1"/><ellipse cx="29.187" cy="17.41" fill="none" stroke="currentColor" stroke-linecap="round" stroke-linejoin="round" rx="1.403" ry="1.374" stroke-width="1"/><ellipse cx="34.686" cy="28.845" fill="none" stroke="currentColor" stroke-linecap="round" stroke-linejoin="round" rx="8.814" ry="8.748" stroke-width="1"/><path fill="none" stroke="currentColor" stroke-linecap="round" stroke-linejoin="round" d="M37.552 24.514h-2.93V31.8" stroke-width="1"/><ellipse cx="33.219" cy="31.801" fill="none" stroke="currentColor" stroke-linecap="round" stroke-linejoin="round" rx="1.403" ry="1.374" stroke-width="1"/></svg>