<svg xmlns="http://www.w3.org/2000/svg" width="48" height="48" viewBox="0 0 48 48"><path fill="none" stroke="currentColor" stroke-linecap="round" stroke-linejoin="round" d="m34.299 16.729l-16.258 2.254v-5.752l16.258-2.254zm0 0v11.108m-16.258-8.854v13.524" stroke-width="1"/><circle cx="14.31" cy="32.507" r="3.731" fill="none" stroke="currentColor" stroke-linecap="round" stroke-linejoin="round" stroke-width="1"/><circle cx="30.568" cy="27.837" r="3.731" fill="none" stroke="currentColor" stroke-linecap="round" stroke-linejoin="round" stroke-width="1"/><path fill="none" stroke="currentColor" stroke-linecap="round" stroke-linejoin="round" d="M38.5 42.499v-8m-3.297 4.704l3.297 3.296l3.297-3.296" stroke-width="1"/><circle cx="38.5" cy="38.499" r="7" fill="none" stroke="currentColor" stroke-linecap="round" stroke-linejoin="round" stroke-width="1"/><path fill="none" stroke="currentColor" stroke-linecap="round" stroke-linejoin="round" d="M33.432 43.326A21.4 21.4 0 0 1 24 45.5C12.126 45.5 2.5 35.874 2.5 24S12.126 2.5 24 2.5S45.5 12.126 45.5 24c0 3.383-.781 6.583-2.173 9.43" stroke-width="1"/></svg>